<mxfile host="65bd71144e" modified="2021-03-12T09:14:35.403Z" agent="5.0 (Macintosh; Intel Mac OS X 11_2_2) AppleWebKit/537.36 (KHTML, like Gecko) Code/1.54.1 Chrome/87.0.4280.141 Electron/11.3.0 Safari/537.36" etag="7c6gXzWHfyuIoU19jAiy" version="14.2.4" type="embed">
    <diagram id="C0RQ5HsRdr0WlV9g2e3y" name="Page-1">
        <mxGraphModel dx="464" dy="427" grid="1" gridSize="10" guides="1" tooltips="1" connect="1" arrows="1" fold="1" page="1" pageScale="1" pageWidth="827" pageHeight="1169" math="0" shadow="0">
            <root>
                <mxCell id="0"/>
                <mxCell id="1" parent="0"/>
                <mxCell id="18" value="" style="endArrow=none;dashed=1;html=1;dashPattern=1 3;strokeWidth=2;fontColor=#FFFFFF;strokeColor=#FFFFFF;" parent="1" edge="1">
                    <mxGeometry width="50" height="50" relative="1" as="geometry">
                        <mxPoint x="60" y="240" as="sourcePoint"/>
                        <mxPoint x="480" y="240" as="targetPoint"/>
                    </mxGeometry>
                </mxCell>
                <mxCell id="2" value="" style="ellipse;shape=cloud;whiteSpace=wrap;html=1;fillColor=#808080;strokeColor=#808080;" parent="1" vertex="1">
                    <mxGeometry x="80" y="70" width="120" height="50" as="geometry"/>
                </mxCell>
                <mxCell id="3" value="" style="endArrow=classic;html=1;fontColor=#FFFFFF;strokeColor=#FFFFFF;" parent="1" edge="1">
                    <mxGeometry width="50" height="50" relative="1" as="geometry">
                        <mxPoint x="60" y="320" as="sourcePoint"/>
                        <mxPoint x="60" y="40" as="targetPoint"/>
                    </mxGeometry>
                </mxCell>
                <mxCell id="4" value="&lt;font style=&quot;font-size: 32px&quot;&gt;z&lt;/font&gt;" style="text;html=1;strokeColor=none;fillColor=none;align=center;verticalAlign=middle;whiteSpace=wrap;rounded=0;fontColor=#FFFFFF;" parent="1" vertex="1">
                    <mxGeometry x="20" y="120" width="40" height="20" as="geometry"/>
                </mxCell>
                <mxCell id="5" value="" style="ellipse;shape=cloud;whiteSpace=wrap;html=1;fillColor=#808080;strokeColor=#808080;" parent="1" vertex="1">
                    <mxGeometry x="200" y="120" width="120" height="50" as="geometry"/>
                </mxCell>
                <mxCell id="6" value="" style="ellipse;shape=cloud;whiteSpace=wrap;html=1;fillColor=#808080;strokeColor=#808080;" parent="1" vertex="1">
                    <mxGeometry x="330" y="60" width="120" height="50" as="geometry"/>
                </mxCell>
                <mxCell id="7" value="" style="whiteSpace=wrap;html=1;aspect=fixed;fillColor=#4D4D4D;" parent="1" vertex="1">
                    <mxGeometry x="130" y="220" width="40" height="40" as="geometry"/>
                </mxCell>
                <mxCell id="9" value="" style="endArrow=none;html=1;fontColor=#FFFFFF;strokeColor=#FFFFFF;" parent="1" edge="1">
                    <mxGeometry width="50" height="50" relative="1" as="geometry">
                        <mxPoint x="50" y="239.82999999999998" as="sourcePoint"/>
                        <mxPoint x="70" y="239.82999999999998" as="targetPoint"/>
                    </mxGeometry>
                </mxCell>
                <mxCell id="10" value="&lt;font style=&quot;font-size: 24px&quot;&gt;5km&lt;/font&gt;" style="text;html=1;strokeColor=none;fillColor=none;align=center;verticalAlign=middle;whiteSpace=wrap;rounded=0;fontColor=#FFFFFF;" parent="1" vertex="1">
                    <mxGeometry x="10" y="200" width="40" height="20" as="geometry"/>
                </mxCell>
                <mxCell id="11" value="" style="endArrow=classic;html=1;exitX=0.5;exitY=0;exitDx=0;exitDy=0;fontColor=#FFFFFF;strokeColor=#FFFFFF;" parent="1" source="7" edge="1">
                    <mxGeometry width="50" height="50" relative="1" as="geometry">
                        <mxPoint x="210" y="240" as="sourcePoint"/>
                        <mxPoint x="150" y="130" as="targetPoint"/>
                        <Array as="points">
                            <mxPoint x="150" y="170"/>
                        </Array>
                    </mxGeometry>
                </mxCell>
                <mxCell id="12" value="" style="whiteSpace=wrap;html=1;aspect=fixed;fillColor=#4D4D4D;" parent="1" vertex="1">
                    <mxGeometry x="240" y="220" width="40" height="40" as="geometry"/>
                </mxCell>
                <mxCell id="13" value="" style="endArrow=classic;html=1;exitX=0.5;exitY=0;exitDx=0;exitDy=0;fontColor=#FFFFFF;strokeColor=#FFFFFF;" parent="1" source="12" edge="1">
                    <mxGeometry width="50" height="50" relative="1" as="geometry">
                        <mxPoint x="320" y="240" as="sourcePoint"/>
                        <mxPoint x="260" y="170" as="targetPoint"/>
                        <Array as="points">
                            <mxPoint x="260" y="170"/>
                        </Array>
                    </mxGeometry>
                </mxCell>
                <mxCell id="14" value="" style="whiteSpace=wrap;html=1;aspect=fixed;fillColor=#4D4D4D;" parent="1" vertex="1">
                    <mxGeometry x="373" y="220" width="40" height="40" as="geometry"/>
                </mxCell>
                <mxCell id="16" value="" style="endArrow=classic;html=1;exitX=0.5;exitY=0;exitDx=0;exitDy=0;fontColor=#FFFFFF;strokeColor=#FFFFFF;" parent="1" source="14" edge="1">
                    <mxGeometry width="50" height="50" relative="1" as="geometry">
                        <mxPoint x="392.65999999999997" y="160" as="sourcePoint"/>
                        <mxPoint x="392.65999999999997" y="110" as="targetPoint"/>
                        <Array as="points">
                            <mxPoint x="392.65999999999997" y="110"/>
                        </Array>
                    </mxGeometry>
                </mxCell>
                <mxCell id="17" value="&lt;font style=&quot;font-size: 24px&quot;&gt;Parcel&lt;/font&gt;" style="text;html=1;strokeColor=none;fillColor=none;align=center;verticalAlign=middle;whiteSpace=wrap;rounded=0;fontColor=#FFFFFF;" parent="1" vertex="1">
                    <mxGeometry x="120" y="270" width="40" height="20" as="geometry"/>
                </mxCell>
            </root>
        </mxGraphModel>
    </diagram>
</mxfile>